<svg width="94" height="24" viewBox="0 0 94 24" fill="none" xmlns="http://www.w3.org/2000/svg">
<path d="M11.472 3.336C11.8347 3.12267 12.3787 2.92 13.104 2.728C13.8507 2.536 14.5973 2.44 15.344 2.44C16.4107 2.44 17.3493 2.6 18.16 2.92C18.992 3.21867 19.5253 3.69867 19.76 4.36C20.144 5.46933 20.56 6.76 21.008 8.232C21.456 9.704 21.904 11.2293 22.352 12.808C22.8 14.3653 23.2373 15.912 23.664 17.448C24.0907 18.9627 24.464 20.3067 24.784 21.48C24.528 21.7787 24.144 22.0133 23.632 22.184C23.12 22.376 22.512 22.472 21.808 22.472C21.296 22.472 20.8587 22.4293 20.496 22.344C20.1547 22.2587 19.8667 22.1307 19.632 21.96C19.4187 21.7893 19.2373 21.5653 19.088 21.288C18.96 21.0107 18.8427 20.6907 18.736 20.328L18.16 18.12H12.368C12.1973 18.76 12.0267 19.4213 11.856 20.104C11.6853 20.7867 11.5147 21.448 11.344 22.088C11.0453 22.1947 10.7253 22.28 10.384 22.344C10.064 22.4293 9.66933 22.472 9.2 22.472C8.112 22.472 7.30133 22.2907 6.768 21.928C6.256 21.544 6 21.0213 6 20.36C6 20.0613 6.04267 19.7627 6.128 19.464C6.21333 19.1653 6.30933 18.8133 6.416 18.408C6.56533 17.832 6.768 17.1173 7.024 16.264C7.30133 15.4107 7.6 14.4933 7.92 13.512C8.24 12.5093 8.58133 11.4853 8.944 10.44C9.30667 9.39467 9.648 8.41333 9.968 7.496C10.288 6.55733 10.576 5.72533 10.832 5C11.1093 4.27467 11.3227 3.72 11.472 3.336ZM15.312 7.464C15.0133 8.36 14.672 9.36267 14.288 10.472C13.9253 11.56 13.5947 12.6693 13.296 13.8H17.264C16.9653 12.648 16.656 11.528 16.336 10.44C16.0373 9.33067 15.76 8.33867 15.504 7.464H15.312Z" fill="url(#paint0_linear_202_1154)"/>
<path d="M31.4705 16.808C31.4705 17.3627 31.6412 17.7573 31.9825 17.992C32.3452 18.2267 32.8465 18.344 33.4865 18.344C33.8065 18.344 34.1372 18.3227 34.4785 18.28C34.8198 18.216 35.1185 18.1413 35.3745 18.056C35.5665 18.2907 35.7265 18.5573 35.8545 18.856C36.0038 19.1333 36.0785 19.4747 36.0785 19.88C36.0785 20.6907 35.7692 21.352 35.1505 21.864C34.5532 22.376 33.4865 22.632 31.9505 22.632C30.0732 22.632 28.6225 22.2053 27.5985 21.352C26.5958 20.4987 26.0945 19.112 26.0945 17.192V3.496C26.3292 3.432 26.6598 3.368 27.0865 3.304C27.5345 3.21867 28.0038 3.176 28.4945 3.176C29.4332 3.176 30.1585 3.34667 30.6705 3.688C31.2038 4.008 31.4705 4.70133 31.4705 5.768V7.816H35.6625C35.7905 8.05067 35.9078 8.34933 36.0145 8.712C36.1425 9.05333 36.2065 9.43733 36.2065 9.864C36.2065 10.6107 36.0358 11.1547 35.6945 11.496C35.3745 11.816 34.9372 11.976 34.3825 11.976H31.4705V16.808Z" fill="url(#paint1_linear_202_1154)"/>
<path d="M43.323 16.808C43.323 17.3627 43.4937 17.7573 43.835 17.992C44.1977 18.2267 44.699 18.344 45.339 18.344C45.659 18.344 45.9897 18.3227 46.331 18.28C46.6723 18.216 46.971 18.1413 47.227 18.056C47.419 18.2907 47.579 18.5573 47.707 18.856C47.8563 19.1333 47.931 19.4747 47.931 19.88C47.931 20.6907 47.6217 21.352 47.003 21.864C46.4057 22.376 45.339 22.632 43.803 22.632C41.9257 22.632 40.475 22.2053 39.451 21.352C38.4483 20.4987 37.947 19.112 37.947 17.192V3.496C38.1817 3.432 38.5123 3.368 38.939 3.304C39.387 3.21867 39.8563 3.176 40.347 3.176C41.2857 3.176 42.011 3.34667 42.523 3.688C43.0563 4.008 43.323 4.70133 43.323 5.768V7.816H47.515C47.643 8.05067 47.7603 8.34933 47.867 8.712C47.995 9.05333 48.059 9.43733 48.059 9.864C48.059 10.6107 47.8883 11.1547 47.547 11.496C47.227 11.816 46.7897 11.976 46.235 11.976H43.323V16.808Z" fill="url(#paint2_linear_202_1154)"/>
<path d="M58.316 10.408C57.7827 10.408 57.2707 10.4933 56.78 10.664C56.3107 10.8347 55.8947 11.0907 55.532 11.432C55.1907 11.752 54.9133 12.1573 54.7 12.648C54.4867 13.1387 54.38 13.7147 54.38 14.376C54.38 15.6987 54.7533 16.6907 55.5 17.352C56.268 18.0133 57.196 18.344 58.284 18.344C58.924 18.344 59.4787 18.2693 59.948 18.12C60.4173 17.9707 60.8333 17.8107 61.196 17.64C61.6227 17.9387 61.9427 18.2693 62.156 18.632C62.3693 18.9733 62.476 19.3893 62.476 19.88C62.476 20.7547 62.06 21.4373 61.228 21.928C60.396 22.3973 59.244 22.632 57.772 22.632C56.428 22.632 55.212 22.44 54.124 22.056C53.036 21.6507 52.0973 21.096 51.308 20.392C50.54 19.6667 49.9427 18.8027 49.516 17.8C49.0893 16.7973 48.876 15.688 48.876 14.472C48.876 13.064 49.1 11.8373 49.548 10.792C50.0173 9.72533 50.6467 8.85067 51.436 8.168C52.2253 7.48533 53.132 6.97333 54.156 6.632C55.2013 6.29067 56.3 6.12 57.452 6.12C58.988 6.12 60.172 6.39733 61.004 6.952C61.836 7.50667 62.252 8.22133 62.252 9.096C62.252 9.50133 62.156 9.88533 61.964 10.248C61.772 10.5893 61.548 10.888 61.292 11.144C60.9293 10.9733 60.492 10.8133 59.98 10.664C59.468 10.4933 58.9133 10.408 58.316 10.408Z" fill="url(#paint3_linear_202_1154)"/>
<path d="M79.6042 22.12C79.3909 22.184 79.0496 22.248 78.5802 22.312C78.1322 22.376 77.6629 22.408 77.1722 22.408C76.7029 22.408 76.2763 22.376 75.8923 22.312C75.5296 22.248 75.2202 22.12 74.9642 21.928C74.7083 21.736 74.5056 21.48 74.3562 21.16C74.2282 20.8187 74.1643 20.3813 74.1643 19.848V12.744C74.1643 11.8693 73.9402 11.2613 73.4922 10.92C73.0656 10.5573 72.5322 10.376 71.8923 10.376C71.4656 10.376 71.0603 10.4293 70.6763 10.536C70.2923 10.6427 69.9829 10.7707 69.7482 10.92V22.12C69.5349 22.184 69.1936 22.248 68.7243 22.312C68.2763 22.376 67.8069 22.408 67.3162 22.408C66.8469 22.408 66.4202 22.376 66.0363 22.312C65.6736 22.248 65.3643 22.12 65.1082 21.928C64.8522 21.736 64.6496 21.48 64.5003 21.16C64.3723 20.8187 64.3083 20.3813 64.3083 19.848V1.288C64.5429 1.24533 64.8842 1.192 65.3322 1.128C65.8016 1.04267 66.2709 1 66.7402 1C67.2096 1 67.6256 1.032 67.9883 1.096C68.3722 1.16 68.6922 1.288 68.9482 1.48C69.2043 1.672 69.3963 1.93867 69.5243 2.28C69.6736 2.6 69.7482 3.02667 69.7482 3.56V6.696C70.0256 6.58933 70.4416 6.472 70.9962 6.344C71.5723 6.19467 72.2016 6.12 72.8842 6.12C74.9962 6.12 76.6389 6.65333 77.8122 7.72C79.0069 8.76533 79.6042 10.3333 79.6042 12.424V22.12Z" fill="url(#paint4_linear_202_1154)"/>
<path d="M81.043 19.56C81.043 18.664 81.3203 17.9173 81.875 17.32C82.4297 16.7227 83.187 16.424 84.147 16.424C85.107 16.424 85.8643 16.7227 86.419 17.32C86.9737 17.9173 87.251 18.664 87.251 19.56C87.251 20.456 86.9737 21.2027 86.419 21.8C85.8643 22.3973 85.107 22.696 84.147 22.696C83.187 22.696 82.4297 22.3973 81.875 21.8C81.3203 21.2027 81.043 20.456 81.043 19.56Z" fill="url(#paint5_linear_202_1154)"/>
<defs>
<linearGradient id="paint0_linear_202_1154" x1="10.5" y1="0.500007" x2="62.5943" y2="48.2001" gradientUnits="userSpaceOnUse">
<stop stop-color="#4338CA"/>
<stop offset="1" stop-color="#E11D48"/>
</linearGradient>
<linearGradient id="paint1_linear_202_1154" x1="10.5" y1="0.500007" x2="62.5943" y2="48.2001" gradientUnits="userSpaceOnUse">
<stop stop-color="#4338CA"/>
<stop offset="1" stop-color="#E11D48"/>
</linearGradient>
<linearGradient id="paint2_linear_202_1154" x1="10.5" y1="0.500007" x2="62.5943" y2="48.2001" gradientUnits="userSpaceOnUse">
<stop stop-color="#4338CA"/>
<stop offset="1" stop-color="#E11D48"/>
</linearGradient>
<linearGradient id="paint3_linear_202_1154" x1="10.5" y1="0.500007" x2="62.5943" y2="48.2001" gradientUnits="userSpaceOnUse">
<stop stop-color="#4338CA"/>
<stop offset="1" stop-color="#E11D48"/>
</linearGradient>
<linearGradient id="paint4_linear_202_1154" x1="10.5" y1="0.500007" x2="62.5943" y2="48.2001" gradientUnits="userSpaceOnUse">
<stop stop-color="#4338CA"/>
<stop offset="1" stop-color="#E11D48"/>
</linearGradient>
<linearGradient id="paint5_linear_202_1154" x1="10.5" y1="0.500007" x2="62.5943" y2="48.2001" gradientUnits="userSpaceOnUse">
<stop stop-color="#4338CA"/>
<stop offset="1" stop-color="#E11D48"/>
</linearGradient>
</defs>
</svg>
