<svg width="258.602" height="77.903" viewBox="0 0 258.602 77.903" xmlns="http://www.w3.org/2000/svg"><g id="svgGroup" stroke-linecap="round" fill-rule="evenodd" font-size="9pt" stroke="#000" stroke-width="0" fill="#1246ad" style="stroke:#000;stroke-width:0;fill:#1246ad"><path d="M 232.201 37 L 232.201 76.1 L 214.401 76.1 L 214.401 40.2 Q 214.401 37.454 213.755 36.031 A 3.387 3.387 0 0 0 213.351 35.35 A 3.404 3.404 0 0 0 211.131 34.065 A 5.101 5.101 0 0 0 210.301 34 A 6.201 6.201 0 0 0 206.903 35.081 Q 204.602 36.567 202.401 40.1 L 202.401 76.1 L 184.601 76.1 L 184.601 1.8 L 202.401 0 L 202.401 28 A 25.707 25.707 0 0 1 205.692 24.958 A 19.424 19.424 0 0 1 209.401 22.7 A 18.742 18.742 0 0 1 215.671 21.081 A 22.529 22.529 0 0 1 217.601 21 A 17.567 17.567 0 0 1 222.114 21.549 A 12.592 12.592 0 0 1 228.301 25.25 A 14.109 14.109 0 0 1 231.494 31.202 Q 232.069 33.318 232.176 35.823 A 27.395 27.395 0 0 1 232.201 37 Z M 50.701 66.1 L 47.101 77.6 A 29.972 29.972 0 0 1 43.553 77.121 Q 41.782 76.765 40.31 76.2 A 14.797 14.797 0 0 1 38.751 75.5 A 11.932 11.932 0 0 1 34.652 71.925 A 15.537 15.537 0 0 1 33.501 70.1 A 16.65 16.65 0 0 1 21.779 77.553 A 26.326 26.326 0 0 1 17.401 77.9 A 21.781 21.781 0 0 1 11.919 77.246 A 15.678 15.678 0 0 1 4.751 73.25 A 15.617 15.617 0 0 1 0.1 63.282 A 21.33 21.33 0 0 1 0.001 61.2 A 19.001 19.001 0 0 1 0.841 55.405 A 14.918 14.918 0 0 1 6.501 47.7 A 21.679 21.679 0 0 1 12.74 44.657 Q 17.998 43 25.301 43 L 29.901 43 L 29.901 41.2 Q 29.901 37.594 28.635 35.922 A 3.692 3.692 0 0 0 28.101 35.35 Q 26.574 34.035 22.962 33.836 A 24.698 24.698 0 0 0 21.601 33.8 A 21.626 21.626 0 0 0 19.643 33.897 Q 18.698 33.983 17.625 34.146 A 49.946 49.946 0 0 0 15.351 34.55 A 62.758 62.758 0 0 0 8.795 36.245 A 70.115 70.115 0 0 0 7.701 36.6 L 3.801 25.1 A 51.286 51.286 0 0 1 12.568 22.364 A 57.805 57.805 0 0 1 14.101 22.05 A 61.829 61.829 0 0 1 19.719 21.231 A 47.503 47.503 0 0 1 24.301 21 A 48.042 48.042 0 0 1 30.537 21.376 Q 37.386 22.275 41.288 25.328 A 13.711 13.711 0 0 1 41.801 25.75 Q 47.301 30.5 47.301 40.3 L 47.301 59.7 Q 47.301 62.252 47.882 63.642 A 4.12 4.12 0 0 0 48.051 64 A 4.012 4.012 0 0 0 49.347 65.416 Q 49.856 65.766 50.511 66.027 A 7.536 7.536 0 0 0 50.701 66.1 Z M 87.601 62.4 L 93.501 73.5 A 21.342 21.342 0 0 1 88.349 76.16 A 25.688 25.688 0 0 1 86.301 76.8 A 31.804 31.804 0 0 1 80.264 77.831 A 28.25 28.25 0 0 1 78.301 77.9 Q 60.064 77.9 59.805 58.076 A 44.044 44.044 0 0 1 59.801 57.5 L 59.801 35 L 52.901 35 L 52.901 22.8 L 59.801 22.8 L 59.801 11.5 L 77.601 9.4 L 77.601 22.8 L 89.701 22.8 L 87.901 35 L 77.601 35 L 77.601 57.3 Q 77.601 60.238 78.367 61.777 A 3.809 3.809 0 0 0 78.751 62.4 A 3.702 3.702 0 0 0 80.998 63.781 A 5.76 5.76 0 0 0 82.201 63.9 A 10.551 10.551 0 0 0 87.194 62.625 A 12.598 12.598 0 0 0 87.601 62.4 Z M 126.901 62.4 L 132.801 73.5 A 21.342 21.342 0 0 1 127.649 76.16 A 25.688 25.688 0 0 1 125.601 76.8 A 31.804 31.804 0 0 1 119.564 77.831 A 28.25 28.25 0 0 1 117.601 77.9 Q 99.364 77.9 99.105 58.076 A 44.044 44.044 0 0 1 99.101 57.5 L 99.101 35 L 92.201 35 L 92.201 22.8 L 99.101 22.8 L 99.101 11.5 L 116.901 9.4 L 116.901 22.8 L 129.001 22.8 L 127.201 35 L 116.901 35 L 116.901 57.3 Q 116.901 60.238 117.667 61.777 A 3.809 3.809 0 0 0 118.051 62.4 A 3.702 3.702 0 0 0 120.298 63.781 A 5.76 5.76 0 0 0 121.501 63.9 A 10.551 10.551 0 0 0 126.494 62.625 A 12.598 12.598 0 0 0 126.901 62.4 Z M 179.601 27.8 L 172.101 38.2 A 18.003 18.003 0 0 0 168.056 35.703 A 13.951 13.951 0 0 0 162.401 34.5 Q 157.501 34.5 155.001 38.05 A 10.726 10.726 0 0 0 153.643 40.841 Q 152.501 44.259 152.501 49.8 A 40.484 40.484 0 0 0 152.657 53.497 Q 152.996 57.178 154.071 59.433 A 7.888 7.888 0 0 0 155.001 60.95 A 8.114 8.114 0 0 0 160.25 63.949 A 12.1 12.1 0 0 0 162.201 64.1 A 13.655 13.655 0 0 0 165.17 63.787 A 11.713 11.713 0 0 0 166.801 63.3 A 18.746 18.746 0 0 0 168.351 62.62 Q 169.142 62.233 170.029 61.728 A 46.427 46.427 0 0 0 171.901 60.6 L 179.601 71.5 A 27.593 27.593 0 0 1 161.961 77.894 A 34.669 34.669 0 0 1 161.301 77.9 Q 152.901 77.9 146.751 74.4 Q 140.601 70.9 137.301 64.55 A 29.073 29.073 0 0 1 134.356 55.137 A 37.398 37.398 0 0 1 134.001 49.9 A 36.488 36.488 0 0 1 134.919 41.555 A 29.669 29.669 0 0 1 137.301 34.95 Q 140.601 28.4 146.651 24.7 Q 152.701 21 160.801 21 A 33.935 33.935 0 0 1 166.463 21.452 A 26.288 26.288 0 0 1 171.201 22.7 Q 175.801 24.4 179.601 27.8 Z M 255.662 61.362 A 9.327 9.327 0 0 0 248.901 58.6 Q 244.901 58.6 242.051 61.45 A 11.409 11.409 0 0 0 241.963 61.539 A 9.327 9.327 0 0 0 239.201 68.3 A 11.13 11.13 0 0 0 239.202 68.456 A 9.162 9.162 0 0 0 242.051 75.1 Q 244.901 77.9 248.901 77.9 A 11.389 11.389 0 0 0 248.932 77.9 A 9.421 9.421 0 0 0 255.751 75.1 A 11.093 11.093 0 0 0 255.861 74.99 A 9.163 9.163 0 0 0 258.601 68.3 Q 258.601 64.3 255.751 61.45 A 11.409 11.409 0 0 0 255.662 61.362 Z M 29.901 61.1 L 29.901 52.5 L 26.901 52.5 A 21.044 21.044 0 0 0 24.399 52.638 Q 21.454 52.992 19.801 54.25 A 5.643 5.643 0 0 0 17.668 57.74 A 8.772 8.772 0 0 0 17.501 59.5 Q 17.501 62.2 18.901 63.8 A 4.577 4.577 0 0 0 21.655 65.306 A 6.704 6.704 0 0 0 22.801 65.4 Q 25.001 65.4 26.851 64.25 A 9.122 9.122 0 0 0 29.71 61.407 A 10.728 10.728 0 0 0 29.901 61.1 Z" vector-effect="non-scaling-stroke"/></g></svg>