<svg width="257.6" height="75.65" viewBox="0 0 257.6 75.65" xmlns="http://www.w3.org/2000/svg"><g id="svgGroup" stroke-linecap="round" fill-rule="evenodd" font-size="9pt" stroke="#000" stroke-width="0" fill="#1e3a8a" style="stroke:#000;stroke-width:0;fill:#1e3a8a"><path d="M 200.5 74.85 L 185 74.85 L 185 0 L 200.5 0 L 200.5 27.55 Q 203.3 25.15 206.575 23.675 A 15.969 15.969 0 0 1 210.291 22.546 Q 211.958 22.243 213.854 22.205 A 27.367 27.367 0 0 1 214.4 22.2 A 20.835 20.835 0 0 1 218.377 22.563 A 16.073 16.073 0 0 1 221.925 23.675 Q 225.2 25.15 227.45 27.775 A 17.177 17.177 0 0 1 230.359 32.647 A 20.449 20.449 0 0 1 230.85 34.025 A 24.712 24.712 0 0 1 231.909 39.559 A 29.58 29.58 0 0 1 232 41.9 L 232 74.85 L 216.5 74.85 L 216.5 41.9 A 13.315 13.315 0 0 0 216.312 39.587 Q 215.926 37.403 214.75 35.975 A 5.631 5.631 0 0 0 211.564 34.058 A 8.749 8.749 0 0 0 209.6 33.85 Q 207.05 33.85 204.8 34.95 Q 202.55 36.05 200.5 37.9 L 200.5 74.85 Z M 45.4 74.85 L 38.3 74.85 A 13.053 13.053 0 0 1 37.148 74.803 Q 35.784 74.681 34.975 74.25 Q 33.85 73.65 33.1 71.75 L 32 68.9 A 55.234 55.234 0 0 1 29.854 70.63 A 43.864 43.864 0 0 1 28.25 71.8 Q 26.45 73.05 24.525 73.925 Q 22.6 74.8 20.425 75.225 A 22.384 22.384 0 0 1 17.866 75.566 A 29.306 29.306 0 0 1 15.6 75.65 A 23.578 23.578 0 0 1 11.912 75.373 A 18.701 18.701 0 0 1 9.15 74.725 A 14.575 14.575 0 0 1 6.089 73.363 A 12.28 12.28 0 0 1 4.225 72 A 11.886 11.886 0 0 1 1.25 67.876 A 13.864 13.864 0 0 1 1.1 67.525 A 14.246 14.246 0 0 1 0.211 64.255 A 19.168 19.168 0 0 1 0 61.35 A 11.905 11.905 0 0 1 0.589 57.721 A 15.44 15.44 0 0 1 1.4 55.7 Q 2.666 53.078 5.609 50.884 A 20.978 20.978 0 0 1 6.25 50.425 A 21.853 21.853 0 0 1 9.312 48.688 Q 10.941 47.918 12.901 47.256 A 46.976 46.976 0 0 1 15.55 46.45 Q 21.4 44.85 30.3 44.65 L 30.3 42.45 Q 30.3 37.9 28.425 35.875 Q 26.56 33.861 23.137 33.85 A 11.689 11.689 0 0 0 23.1 33.85 Q 21.154 33.85 19.708 34.151 A 9.185 9.185 0 0 0 18.6 34.45 A 22.618 22.618 0 0 0 16.774 35.162 A 17.607 17.607 0 0 0 15.475 35.8 A 46.362 46.362 0 0 1 13.455 36.841 A 40.499 40.499 0 0 1 12.8 37.15 A 6.257 6.257 0 0 1 11.281 37.618 Q 10.597 37.741 9.818 37.749 A 10.654 10.654 0 0 1 9.7 37.75 Q 8.1 37.75 6.975 36.975 Q 5.85 36.2 5.2 35.05 L 2.4 30.2 Q 7.1 26.05 12.825 24.025 A 35.971 35.971 0 0 1 23.425 22.034 A 41.378 41.378 0 0 1 25.1 22 A 25.01 25.01 0 0 1 29.833 22.43 A 20.118 20.118 0 0 1 33.575 23.525 A 18.826 18.826 0 0 1 38.408 26.337 A 17.228 17.228 0 0 1 39.975 27.775 A 18.51 18.51 0 0 1 43.911 34.017 A 21.145 21.145 0 0 1 44 34.25 A 22.336 22.336 0 0 1 45.313 40.269 A 26.726 26.726 0 0 1 45.4 42.45 L 45.4 74.85 Z M 177.9 29.85 L 173.8 35.3 A 11.12 11.12 0 0 1 173.24 35.933 Q 172.836 36.353 172.45 36.65 A 2.162 2.162 0 0 1 171.776 36.992 Q 171.471 37.088 171.101 37.126 A 4.95 4.95 0 0 1 170.6 37.15 A 4.129 4.129 0 0 1 169.158 36.902 A 3.84 3.84 0 0 1 168.525 36.6 Q 167.6 36.05 166.45 35.375 A 13.436 13.436 0 0 0 165.2 34.731 Q 164.536 34.43 163.774 34.159 A 21.499 21.499 0 0 0 163.75 34.15 A 8.593 8.593 0 0 0 162.367 33.794 Q 161.644 33.667 160.808 33.623 A 17.394 17.394 0 0 0 159.9 33.6 Q 157.05 33.6 154.975 34.65 Q 152.9 35.7 151.55 37.65 A 11.994 11.994 0 0 0 150.268 40.082 A 16.363 16.363 0 0 0 149.55 42.425 Q 148.903 45.239 148.9 48.772 A 38.414 38.414 0 0 0 148.9 48.8 A 31.013 31.013 0 0 0 149.181 53.119 Q 149.49 55.31 150.138 57.092 A 12.979 12.979 0 0 0 151.775 60.25 A 9.489 9.489 0 0 0 155.071 63.187 Q 157.096 64.25 159.7 64.25 A 17.685 17.685 0 0 0 161.278 64.184 Q 162.892 64.039 163.975 63.575 A 15.463 15.463 0 0 0 165.347 62.909 Q 166.021 62.538 166.577 62.13 A 9.439 9.439 0 0 0 166.65 62.075 A 670.728 670.728 0 0 0 167.706 61.281 A 520.04 520.04 0 0 0 168.675 60.55 A 3.38 3.38 0 0 1 170.074 59.937 A 4.726 4.726 0 0 1 171 59.85 A 4.029 4.029 0 0 1 172.166 60.01 A 3.015 3.015 0 0 1 173.8 61.2 L 178.3 66.75 A 26.975 26.975 0 0 1 175.521 69.519 A 21.747 21.747 0 0 1 173.25 71.225 A 25.847 25.847 0 0 1 168.861 73.533 A 23.413 23.413 0 0 1 167.825 73.925 Q 165.05 74.9 162.25 75.275 Q 159.45 75.65 156.8 75.65 Q 152.05 75.65 147.725 73.85 Q 143.4 72.05 140.125 68.625 A 23.72 23.72 0 0 1 136.124 62.906 A 29.175 29.175 0 0 1 134.925 60.2 Q 133 55.2 133 48.8 A 33.181 33.181 0 0 1 133.865 41.125 A 29.669 29.669 0 0 1 134.675 38.325 A 24.174 24.174 0 0 1 138.453 31.261 A 22.746 22.746 0 0 1 139.625 29.875 A 22.635 22.635 0 0 1 146.543 24.786 A 26.573 26.573 0 0 1 147.725 24.25 A 25.042 25.042 0 0 1 153.636 22.592 A 33.769 33.769 0 0 1 158.9 22.2 A 32.318 32.318 0 0 1 164.247 22.621 A 23.728 23.728 0 0 1 169.6 24.15 A 25.655 25.655 0 0 1 177.842 29.792 A 29.096 29.096 0 0 1 177.9 29.85 Z M 59.4 60.5 L 59.4 33.7 L 55 33.7 Q 53.8 33.7 52.95 32.925 Q 52.1 32.15 52.1 30.65 L 52.1 24.6 L 60.35 23 L 63.4 10.35 A 3.352 3.352 0 0 1 63.987 9.088 Q 64.566 8.343 65.592 8.086 A 4.968 4.968 0 0 1 66.8 7.95 L 74.9 7.95 L 74.9 23.1 L 87.5 23.1 L 87.5 33.7 L 74.9 33.7 L 74.9 59.45 Q 74.9 61.25 75.775 62.425 Q 76.65 63.6 78.3 63.6 Q 78.951 63.6 79.44 63.497 A 3.308 3.308 0 0 0 79.725 63.425 A 6.776 6.776 0 0 0 80.231 63.25 Q 80.466 63.158 80.668 63.055 A 4.136 4.136 0 0 0 80.725 63.025 Q 81.15 62.8 81.525 62.625 A 1.823 1.823 0 0 1 82.007 62.48 A 2.46 2.46 0 0 1 82.4 62.45 A 2.453 2.453 0 0 1 82.868 62.492 Q 83.145 62.546 83.363 62.668 A 1.373 1.373 0 0 1 83.525 62.775 Q 83.823 63.002 84.132 63.413 A 6.35 6.35 0 0 1 84.4 63.8 L 89.1 71.15 A 20.828 20.828 0 0 1 89.053 71.185 A 21.399 21.399 0 0 1 82.35 74.525 Q 78.6 75.65 74.6 75.65 A 21.649 21.649 0 0 1 71.324 75.414 A 15.867 15.867 0 0 1 68.075 74.575 A 13.666 13.666 0 0 1 64.825 72.828 A 12.059 12.059 0 0 1 63.325 71.525 A 12.794 12.794 0 0 1 60.665 67.437 A 14.96 14.96 0 0 1 60.4 66.75 Q 59.4 63.95 59.4 60.5 Z M 99.4 60.5 L 99.4 33.7 L 95 33.7 Q 93.8 33.7 92.95 32.925 Q 92.1 32.15 92.1 30.65 L 92.1 24.6 L 100.35 23 L 103.4 10.35 A 3.352 3.352 0 0 1 103.987 9.088 Q 104.566 8.343 105.592 8.086 A 4.968 4.968 0 0 1 106.8 7.95 L 114.9 7.95 L 114.9 23.1 L 127.5 23.1 L 127.5 33.7 L 114.9 33.7 L 114.9 59.45 Q 114.9 61.25 115.775 62.425 Q 116.65 63.6 118.3 63.6 Q 118.951 63.6 119.44 63.497 A 3.308 3.308 0 0 0 119.725 63.425 A 6.776 6.776 0 0 0 120.231 63.25 Q 120.466 63.158 120.668 63.055 A 4.136 4.136 0 0 0 120.725 63.025 Q 121.15 62.8 121.525 62.625 A 1.823 1.823 0 0 1 122.007 62.48 A 2.46 2.46 0 0 1 122.4 62.45 A 2.453 2.453 0 0 1 122.868 62.492 Q 123.145 62.546 123.363 62.668 A 1.373 1.373 0 0 1 123.525 62.775 Q 123.823 63.002 124.132 63.413 A 6.35 6.35 0 0 1 124.4 63.8 L 129.1 71.15 A 20.828 20.828 0 0 1 129.053 71.185 A 21.399 21.399 0 0 1 122.35 74.525 Q 118.6 75.65 114.6 75.65 A 21.649 21.649 0 0 1 111.324 75.414 A 15.867 15.867 0 0 1 108.075 74.575 A 13.666 13.666 0 0 1 104.825 72.828 A 12.059 12.059 0 0 1 103.325 71.525 A 12.794 12.794 0 0 1 100.665 67.437 A 14.96 14.96 0 0 1 100.4 66.75 Q 99.4 63.95 99.4 60.5 Z M 240.445 64.243 A 8.439 8.439 0 0 0 240 67 Q 240 68.8 240.675 70.375 Q 241.35 71.95 242.525 73.1 Q 243.7 74.25 245.3 74.9 A 8.499 8.499 0 0 0 246.436 75.27 A 9.702 9.702 0 0 0 248.8 75.55 A 10.337 10.337 0 0 0 249.145 75.544 A 8.979 8.979 0 0 0 252.25 74.9 Q 253.85 74.25 255.05 73.1 Q 256.25 71.95 256.925 70.375 Q 257.6 68.8 257.6 67 A 9.478 9.478 0 0 0 257.597 66.776 A 8.24 8.24 0 0 0 256.925 63.65 Q 256.25 62.1 255.05 60.95 Q 253.85 59.8 252.25 59.125 A 8.366 8.366 0 0 0 251.641 58.896 A 8.934 8.934 0 0 0 248.8 58.45 A 10.248 10.248 0 0 0 248.098 58.474 A 8.675 8.675 0 0 0 245.3 59.125 Q 243.7 59.8 242.525 60.95 Q 241.35 62.1 240.675 63.65 A 7.923 7.923 0 0 0 240.445 64.243 Z M 30.3 60.95 L 30.3 53.75 Q 25.65 53.95 22.65 54.55 A 28.883 28.883 0 0 0 20.897 54.954 Q 20 55.193 19.251 55.467 A 11.874 11.874 0 0 0 17.9 56.05 A 8.774 8.774 0 0 0 16.867 56.668 Q 16.369 57.018 16.007 57.4 A 3.875 3.875 0 0 0 15.475 58.1 Q 14.8 59.25 14.8 60.6 A 7.589 7.589 0 0 0 14.909 61.931 Q 15.037 62.65 15.317 63.203 A 3.133 3.133 0 0 0 16.25 64.325 Q 17.307 65.109 19.083 65.321 A 11.964 11.964 0 0 0 20.5 65.4 A 14.488 14.488 0 0 0 23.145 65.17 A 10.789 10.789 0 0 0 25.75 64.35 Q 27.697 63.442 29.681 61.56 A 23.328 23.328 0 0 0 30.3 60.95 Z" vector-effect="non-scaling-stroke"/></g></svg>